<mxfile host="app.diagrams.net" agent="Mozilla/5.0 (X11; Linux x86_64; rv:134.0) Gecko/20100101 Firefox/134.0" version="26.0.7">
  <diagram name="Page-1" id="2O54he_iV0tcfqrj9Db2">
    <mxGraphModel dx="564" dy="450" grid="1" gridSize="10" guides="1" tooltips="1" connect="1" arrows="1" fold="1" page="1" pageScale="1" pageWidth="850" pageHeight="1100" math="0" shadow="0">
      <root>
        <mxCell id="0" />
        <mxCell id="1" parent="0" />
        <mxCell id="TpiMZ8z6lbcMxNbBs4mE-25" value="User" style="swimlane;" parent="1" vertex="1">
          <mxGeometry x="190" y="40" width="410" height="590" as="geometry" />
        </mxCell>
        <mxCell id="TpiMZ8z6lbcMxNbBs4mE-26" value="" style="ellipse;html=1;shape=startState;fillColor=#000000;strokeColor=#ff0000;" parent="TpiMZ8z6lbcMxNbBs4mE-25" vertex="1">
          <mxGeometry x="164.75" y="30" width="30" height="30" as="geometry" />
        </mxCell>
        <mxCell id="TpiMZ8z6lbcMxNbBs4mE-27" value="" style="edgeStyle=orthogonalEdgeStyle;html=1;verticalAlign=bottom;endArrow=open;endSize=8;strokeColor=#ff0000;rounded=0;entryX=0.5;entryY=0;entryDx=0;entryDy=0;" parent="TpiMZ8z6lbcMxNbBs4mE-25" source="TpiMZ8z6lbcMxNbBs4mE-26" target="TpiMZ8z6lbcMxNbBs4mE-28" edge="1">
          <mxGeometry relative="1" as="geometry">
            <mxPoint x="179.75" y="130" as="targetPoint" />
          </mxGeometry>
        </mxCell>
        <mxCell id="TpiMZ8z6lbcMxNbBs4mE-28" value="Click On join Group Share" style="rounded=1;whiteSpace=wrap;html=1;arcSize=50;fontColor=#000000;fillColor=#ffffc0;strokeColor=#ff0000;" parent="TpiMZ8z6lbcMxNbBs4mE-25" vertex="1">
          <mxGeometry x="119.75" y="70" width="120" height="40" as="geometry" />
        </mxCell>
        <mxCell id="TpiMZ8z6lbcMxNbBs4mE-29" value="" style="edgeStyle=orthogonalEdgeStyle;html=1;verticalAlign=bottom;endArrow=open;endSize=8;strokeColor=#ff0000;rounded=0;entryX=0.5;entryY=0;entryDx=0;entryDy=0;" parent="TpiMZ8z6lbcMxNbBs4mE-25" source="TpiMZ8z6lbcMxNbBs4mE-28" target="TpiMZ8z6lbcMxNbBs4mE-30" edge="1">
          <mxGeometry relative="1" as="geometry">
            <mxPoint x="179.75" y="260" as="targetPoint" />
            <Array as="points" />
          </mxGeometry>
        </mxCell>
        <mxCell id="TpiMZ8z6lbcMxNbBs4mE-30" value="Enter the password " style="rounded=1;whiteSpace=wrap;html=1;arcSize=40;fontColor=#000000;fillColor=#ffffc0;strokeColor=#ff0000;" parent="TpiMZ8z6lbcMxNbBs4mE-25" vertex="1">
          <mxGeometry x="120" y="120" width="120" height="60" as="geometry" />
        </mxCell>
        <mxCell id="TpiMZ8z6lbcMxNbBs4mE-31" value="" style="edgeStyle=orthogonalEdgeStyle;html=1;verticalAlign=bottom;endArrow=open;endSize=8;strokeColor=#ff0000;rounded=0;entryX=0.5;entryY=0;entryDx=0;entryDy=0;" parent="TpiMZ8z6lbcMxNbBs4mE-25" source="TpiMZ8z6lbcMxNbBs4mE-30" target="TpiMZ8z6lbcMxNbBs4mE-34" edge="1">
          <mxGeometry relative="1" as="geometry">
            <mxPoint x="180" y="260" as="targetPoint" />
            <Array as="points" />
          </mxGeometry>
        </mxCell>
        <mxCell id="DbU4vVNVeQuLeiw8wJ58-33" style="edgeStyle=orthogonalEdgeStyle;html=1;verticalAlign=bottom;endArrow=open;endSize=8;strokeColor=#ff0000;rounded=0;entryX=0;entryY=0.5;entryDx=0;entryDy=0;exitX=1;exitY=0.5;exitDx=0;exitDy=0;" parent="TpiMZ8z6lbcMxNbBs4mE-25" source="TpiMZ8z6lbcMxNbBs4mE-34" target="DbU4vVNVeQuLeiw8wJ58-32" edge="1">
          <mxGeometry relative="1" as="geometry" />
        </mxCell>
        <mxCell id="TpiMZ8z6lbcMxNbBs4mE-34" value="Generate Public and private key associated with Group" style="rounded=1;whiteSpace=wrap;html=1;arcSize=40;fontColor=#000000;fillColor=#ffffc0;strokeColor=#ff0000;" parent="TpiMZ8z6lbcMxNbBs4mE-25" vertex="1">
          <mxGeometry x="115" y="200" width="130" height="50" as="geometry" />
        </mxCell>
        <mxCell id="DbU4vVNVeQuLeiw8wJ58-39" style="edgeStyle=orthogonalEdgeStyle;html=1;verticalAlign=bottom;endArrow=open;endSize=8;strokeColor=#ff0000;rounded=0;entryX=0;entryY=0.5;entryDx=0;entryDy=0;exitX=1;exitY=0.5;exitDx=0;exitDy=0;" parent="TpiMZ8z6lbcMxNbBs4mE-25" source="DbU4vVNVeQuLeiw8wJ58-32" target="DbU4vVNVeQuLeiw8wJ58-35" edge="1">
          <mxGeometry relative="1" as="geometry" />
        </mxCell>
        <mxCell id="DbU4vVNVeQuLeiw8wJ58-32" value="Sign the Request with User Private Key" style="rounded=1;whiteSpace=wrap;html=1;arcSize=40;fontColor=#000000;fillColor=#ffffc0;strokeColor=#ff0000;" parent="TpiMZ8z6lbcMxNbBs4mE-25" vertex="1">
          <mxGeometry x="120" y="260" width="120" height="40" as="geometry" />
        </mxCell>
        <mxCell id="DbU4vVNVeQuLeiw8wJ58-34" value="Add Headers and Sign the message using Private Key" style="rounded=1;whiteSpace=wrap;html=1;arcSize=40;fontColor=#000000;fillColor=#ffffc0;strokeColor=#ff0000;" parent="TpiMZ8z6lbcMxNbBs4mE-25" vertex="1">
          <mxGeometry x="120.25" y="380" width="120" height="50" as="geometry" />
        </mxCell>
        <mxCell id="_gU95FlMKmj68m1ZSwZ8-1" style="edgeStyle=orthogonalEdgeStyle;html=1;verticalAlign=bottom;endArrow=open;endSize=8;strokeColor=#ff0000;rounded=0;entryX=0.5;entryY=0;entryDx=0;entryDy=0;exitX=0.5;exitY=1;exitDx=0;exitDy=0;" edge="1" parent="TpiMZ8z6lbcMxNbBs4mE-25" source="DbU4vVNVeQuLeiw8wJ58-35" target="DbU4vVNVeQuLeiw8wJ58-34">
          <mxGeometry relative="1" as="geometry" />
        </mxCell>
        <mxCell id="DbU4vVNVeQuLeiw8wJ58-35" value="Join Group" style="rounded=1;whiteSpace=wrap;html=1;arcSize=40;fontColor=#000000;fillColor=#ffffc0;strokeColor=#ff0000;" parent="TpiMZ8z6lbcMxNbBs4mE-25" vertex="1">
          <mxGeometry x="120" y="320" width="120" height="40" as="geometry" />
        </mxCell>
        <mxCell id="DbU4vVNVeQuLeiw8wJ58-37" value="Send" style="rounded=1;whiteSpace=wrap;html=1;arcSize=40;fontColor=#000000;fillColor=#ffffc0;strokeColor=#ff0000;" parent="TpiMZ8z6lbcMxNbBs4mE-25" vertex="1">
          <mxGeometry x="120.25" y="450" width="120" height="40" as="geometry" />
        </mxCell>
        <mxCell id="DbU4vVNVeQuLeiw8wJ58-38" value="" style="edgeStyle=orthogonalEdgeStyle;html=1;verticalAlign=bottom;endArrow=open;endSize=8;strokeColor=#ff0000;rounded=0;exitX=0.5;exitY=1;exitDx=0;exitDy=0;entryX=0.5;entryY=0;entryDx=0;entryDy=0;" parent="TpiMZ8z6lbcMxNbBs4mE-25" source="DbU4vVNVeQuLeiw8wJ58-34" target="DbU4vVNVeQuLeiw8wJ58-37" edge="1">
          <mxGeometry relative="1" as="geometry">
            <mxPoint x="180.25" y="630" as="targetPoint" />
            <mxPoint x="240.25" y="500" as="sourcePoint" />
          </mxGeometry>
        </mxCell>
        <mxCell id="DbU4vVNVeQuLeiw8wJ58-47" value="" style="ellipse;html=1;shape=endState;fillColor=#000000;strokeColor=#ff0000;" parent="TpiMZ8z6lbcMxNbBs4mE-25" vertex="1">
          <mxGeometry x="172" y="530" width="30" height="30" as="geometry" />
        </mxCell>
        <mxCell id="DbU4vVNVeQuLeiw8wJ58-63" value="inform Success" style="rounded=1;whiteSpace=wrap;html=1;arcSize=40;fontColor=#000000;fillColor=#ffffc0;strokeColor=#ff0000;" parent="TpiMZ8z6lbcMxNbBs4mE-25" vertex="1">
          <mxGeometry x="270" y="440" width="120" height="40" as="geometry" />
        </mxCell>
        <mxCell id="DbU4vVNVeQuLeiw8wJ58-64" value="" style="edgeStyle=orthogonalEdgeStyle;html=1;verticalAlign=bottom;endArrow=open;endSize=8;strokeColor=#ff0000;rounded=0;entryX=0.5;entryY=1;entryDx=0;entryDy=0;" parent="TpiMZ8z6lbcMxNbBs4mE-25" source="DbU4vVNVeQuLeiw8wJ58-63" target="DbU4vVNVeQuLeiw8wJ58-47" edge="1">
          <mxGeometry relative="1" as="geometry">
            <mxPoint x="350" y="550" as="targetPoint" />
            <Array as="points">
              <mxPoint x="330" y="570" />
              <mxPoint x="187" y="570" />
            </Array>
          </mxGeometry>
        </mxCell>
        <mxCell id="TpiMZ8z6lbcMxNbBs4mE-38" value="server" style="swimlane;" parent="1" vertex="1">
          <mxGeometry x="600" y="40" width="350" height="590" as="geometry" />
        </mxCell>
        <mxCell id="DbU4vVNVeQuLeiw8wJ58-40" value="Validate the Signature" style="rounded=1;whiteSpace=wrap;html=1;arcSize=40;fontColor=#000000;fillColor=#ffffc0;strokeColor=#ff0000;" parent="TpiMZ8z6lbcMxNbBs4mE-38" vertex="1">
          <mxGeometry x="115" y="95" width="120" height="40" as="geometry" />
        </mxCell>
        <mxCell id="DbU4vVNVeQuLeiw8wJ58-41" value="" style="edgeStyle=orthogonalEdgeStyle;html=1;verticalAlign=bottom;endArrow=open;endSize=8;strokeColor=#ff0000;rounded=0;entryX=0.5;entryY=0;entryDx=0;entryDy=0;" parent="TpiMZ8z6lbcMxNbBs4mE-38" source="DbU4vVNVeQuLeiw8wJ58-40" target="DbU4vVNVeQuLeiw8wJ58-44" edge="1">
          <mxGeometry relative="1" as="geometry">
            <mxPoint x="175" y="215" as="targetPoint" />
          </mxGeometry>
        </mxCell>
        <mxCell id="DbU4vVNVeQuLeiw8wJ58-42" value="Find Peers who claim to have the group public key" style="rounded=1;whiteSpace=wrap;html=1;arcSize=40;fontColor=#000000;fillColor=#ffffc0;strokeColor=#ff0000;" parent="TpiMZ8z6lbcMxNbBs4mE-38" vertex="1">
          <mxGeometry x="117" y="313" width="114" height="50" as="geometry" />
        </mxCell>
        <mxCell id="DbU4vVNVeQuLeiw8wJ58-43" value="Inform failure" style="rounded=1;whiteSpace=wrap;html=1;arcSize=40;fontColor=#000000;fillColor=#ffffc0;strokeColor=#ff0000;" parent="TpiMZ8z6lbcMxNbBs4mE-38" vertex="1">
          <mxGeometry x="115" y="525" width="120" height="40" as="geometry" />
        </mxCell>
        <mxCell id="DbU4vVNVeQuLeiw8wJ58-44" value="" style="rhombus;whiteSpace=wrap;html=1;fontColor=#000000;fillColor=#ffffc0;strokeColor=#ff0000;" parent="TpiMZ8z6lbcMxNbBs4mE-38" vertex="1">
          <mxGeometry x="134" y="225" width="80" height="40" as="geometry" />
        </mxCell>
        <mxCell id="DbU4vVNVeQuLeiw8wJ58-45" value="&lt;div&gt;valid&lt;/div&gt;" style="edgeStyle=orthogonalEdgeStyle;html=1;align=left;verticalAlign=top;endArrow=open;endSize=8;strokeColor=#ff0000;rounded=0;entryX=0.5;entryY=0;entryDx=0;entryDy=0;" parent="TpiMZ8z6lbcMxNbBs4mE-38" source="DbU4vVNVeQuLeiw8wJ58-44" target="DbU4vVNVeQuLeiw8wJ58-42" edge="1">
          <mxGeometry x="-1" relative="1" as="geometry">
            <mxPoint x="174" y="325" as="targetPoint" />
          </mxGeometry>
        </mxCell>
        <mxCell id="DbU4vVNVeQuLeiw8wJ58-58" value="" style="edgeStyle=orthogonalEdgeStyle;html=1;verticalAlign=bottom;endArrow=open;endSize=8;strokeColor=#ff0000;rounded=0;entryX=0.5;entryY=0;entryDx=0;entryDy=0;exitX=0.5;exitY=1;exitDx=0;exitDy=0;" parent="TpiMZ8z6lbcMxNbBs4mE-38" target="DbU4vVNVeQuLeiw8wJ58-59" edge="1">
          <mxGeometry relative="1" as="geometry">
            <mxPoint x="235" y="410" as="targetPoint" />
            <mxPoint x="178.00000000000045" y="363" as="sourcePoint" />
            <Array as="points">
              <mxPoint x="180" y="363" />
              <mxPoint x="180" y="420" />
            </Array>
          </mxGeometry>
        </mxCell>
        <mxCell id="DbU4vVNVeQuLeiw8wJ58-59" value="Find AnyOne?" style="rhombus;whiteSpace=wrap;html=1;fontColor=#000000;fillColor=#ffffc0;strokeColor=#ff0000;" parent="TpiMZ8z6lbcMxNbBs4mE-38" vertex="1">
          <mxGeometry x="135" y="420" width="100" height="40" as="geometry" />
        </mxCell>
        <mxCell id="DbU4vVNVeQuLeiw8wJ58-60" value="no" style="edgeStyle=orthogonalEdgeStyle;html=1;align=left;verticalAlign=bottom;endArrow=open;endSize=8;strokeColor=#ff0000;rounded=0;exitX=0.5;exitY=1;exitDx=0;exitDy=0;" parent="TpiMZ8z6lbcMxNbBs4mE-38" source="DbU4vVNVeQuLeiw8wJ58-59" target="DbU4vVNVeQuLeiw8wJ58-43" edge="1">
          <mxGeometry x="-1" relative="1" as="geometry">
            <mxPoint x="480" y="430" as="targetPoint" />
            <mxPoint as="offset" />
          </mxGeometry>
        </mxCell>
        <mxCell id="DbU4vVNVeQuLeiw8wJ58-48" style="edgeStyle=orthogonalEdgeStyle;html=1;verticalAlign=bottom;endArrow=open;endSize=8;strokeColor=#ff0000;rounded=0;entryX=0.5;entryY=0;entryDx=0;entryDy=0;exitX=0;exitY=0.5;exitDx=0;exitDy=0;" parent="1" source="DbU4vVNVeQuLeiw8wJ58-43" target="DbU4vVNVeQuLeiw8wJ58-47" edge="1">
          <mxGeometry relative="1" as="geometry" />
        </mxCell>
        <mxCell id="DbU4vVNVeQuLeiw8wJ58-49" value="invalid" style="edgeStyle=orthogonalEdgeStyle;html=1;verticalAlign=bottom;endArrow=open;endSize=8;strokeColor=#ff0000;rounded=0;entryX=0.5;entryY=0;entryDx=0;entryDy=0;exitX=0;exitY=0.5;exitDx=0;exitDy=0;" parent="1" source="DbU4vVNVeQuLeiw8wJ58-44" target="DbU4vVNVeQuLeiw8wJ58-47" edge="1">
          <mxGeometry relative="1" as="geometry">
            <mxPoint x="690" y="300" as="sourcePoint" />
            <Array as="points">
              <mxPoint x="670" y="285" />
              <mxPoint x="670" y="550" />
              <mxPoint x="380" y="550" />
              <mxPoint x="380" y="570" />
            </Array>
          </mxGeometry>
        </mxCell>
        <mxCell id="DbU4vVNVeQuLeiw8wJ58-36" value="" style="edgeStyle=orthogonalEdgeStyle;html=1;verticalAlign=bottom;endArrow=open;endSize=8;strokeColor=#ff0000;rounded=0;entryX=0;entryY=0.5;entryDx=0;entryDy=0;exitX=1;exitY=0.5;exitDx=0;exitDy=0;" parent="1" source="DbU4vVNVeQuLeiw8wJ58-37" target="DbU4vVNVeQuLeiw8wJ58-40" edge="1">
          <mxGeometry relative="1" as="geometry">
            <mxPoint x="170.25" y="460" as="targetPoint" />
            <Array as="points">
              <mxPoint x="450" y="510" />
              <mxPoint x="450" y="380" />
              <mxPoint x="630" y="380" />
              <mxPoint x="630" y="155" />
            </Array>
            <mxPoint x="470" y="450" as="sourcePoint" />
          </mxGeometry>
        </mxCell>
        <mxCell id="DbU4vVNVeQuLeiw8wJ58-61" value="yes" style="edgeStyle=orthogonalEdgeStyle;html=1;align=left;verticalAlign=top;endArrow=open;endSize=8;strokeColor=#ff0000;rounded=0;exitX=0;exitY=0.5;exitDx=0;exitDy=0;" parent="1" source="DbU4vVNVeQuLeiw8wJ58-59" target="DbU4vVNVeQuLeiw8wJ58-63" edge="1">
          <mxGeometry x="-1" relative="1" as="geometry">
            <mxPoint x="1010" y="470" as="targetPoint" />
            <mxPoint x="1080" y="400" as="sourcePoint" />
          </mxGeometry>
        </mxCell>
      </root>
    </mxGraphModel>
  </diagram>
</mxfile>
